<?xml version="1.0" encoding="utf-8"?>
<!-- Generator: Adobe Illustrator 15.1.0, SVG Export Plug-In . SVG Version: 6.00 Build 0)  -->
<!DOCTYPE svg PUBLIC "-//W3C//DTD SVG 1.1//EN" "http://www.w3.org/Graphics/SVG/1.1/DTD/svg11.dtd">
<svg version="1.1" id="Layer_1" xmlns="http://www.w3.org/2000/svg" xmlns:xlink="http://www.w3.org/1999/xlink" x="0px" y="0px"
	 width="320px" height="200px" viewBox="0 0 320 200" enable-background="new 0 0 320 200" xml:space="preserve">
<g>
	<path fill-rule="evenodd" clip-rule="evenodd" fill="#231F20" d="M152.682,4.469c10.277-0.489,21.191,0.058,30.803,0.844
		c9.75,0.797,18.994,2.143,27.744,3.902c17.563,3.533,33.464,8.729,47.788,15.402c14.423,6.72,26.845,14.715,37.66,25.529
		c10.283,10.282,19.464,23.219,21.837,40.72c1.359,10.043-0.255,20.17-3.27,27.533c-1.34,3.269-3.001,7.105-4.853,10.338
		c-1.93,3.368-4.286,6.431-6.541,9.284c-9.458,11.963-21.378,20.897-34.813,28.379c-13.663,7.605-28.848,13.569-45.467,17.72
		c-12.676,3.167-25.893,5.598-40.613,6.857c-24.682,2.114-52.116,0.246-73.316-4.008c-22.048-4.426-41.424-11.192-58.336-20.676
		c-10.088-5.658-19.242-12.175-27.218-20.15c-5.263-5.265-10.068-11.033-13.923-17.722c-3.86-6.695-6.803-13.921-8.018-22.892
		C0.774,95.404,2.393,85.138,5.312,77.891c1.235-3.072,3.148-7.084,4.958-10.232c5.761-10.024,13.59-18.267,22.258-25.212
		c2.89-2.316,5.997-4.46,9.178-6.647c3.115-2.142,6.426-4.02,9.809-5.907c6.757-3.767,13.88-7.247,21.521-10.127
		c3.841-1.447,7.674-2.863,11.709-4.114c11.862-3.677,24.63-6.862,38.61-8.756c9.216-1.249,18.896-2.426,29.116-2.426
		C152.542,4.469,152.612,4.472,152.682,4.469z M139.179,7.739c-14.108,1.114-27.087,3.497-39.349,6.541
		c-16.253,4.034-30.977,9.998-44.095,17.195c-6.584,3.612-13.003,7.687-18.461,12.131c-8.397,6.839-16.042,14.526-21.73,24.158
		c-5.456,9.238-10.283,22.153-8.334,36.816c2.35,17.679,11.004,29.794,20.993,40.193c2.454,2.555,5.312,4.895,8.124,7.172
		c2.837,2.3,5.718,4.535,8.755,6.541c24.627,16.264,55.095,26.592,92.515,29.959c14.421,1.3,29.962,1.316,44.095,0.212
		c4.682-0.366,9.227-0.971,13.713-1.583c26.854-3.661,49.999-10.97,69.836-22.048c13.028-7.274,24.562-15.854,33.862-27.32
		c4.507-5.556,8.397-11.712,11.289-19.307c2.81-7.381,4.729-16.533,3.48-26.373c-2.252-17.749-11.18-30.029-20.887-40.297
		c-0.598-0.631-1.361-1.151-2.006-1.794c-1.946-1.948-3.999-3.653-6.117-5.379c-19.797-16.124-44.813-26.635-74.477-32.702
		c-8.439-1.726-17.342-3.125-26.69-3.903C174.402,7.176,163.93,6.525,153.948,7C148.836,7.244,143.921,7.365,139.179,7.739z"/>
	<path fill-rule="evenodd" clip-rule="evenodd" fill="#231F20" d="M148.779,14.174c2.984,2.568-0.885,5.886-3.903,5.802
		c-3.272-0.092-1.775-3.556,0.104-4.747C146.155,14.486,147.32,14.29,148.779,14.174z"/>
	<path fill-rule="evenodd" clip-rule="evenodd" fill="#231F20" d="M197.62,17.549c1.253-0.133,2.036-0.32,2.638,0.212
		c0.808,0.712,0.438,2.458-0.106,3.165c-0.476,0.619-1.928,1.376-3.268,1.476c-1.503,0.112-3.374-0.296-3.588-1.372
		c-0.274-1.369,1.589-2.807,2.426-3.164C196.319,17.611,196.864,17.631,197.62,17.549z"/>
	<path fill-rule="evenodd" clip-rule="evenodd" fill="#231F20" d="M210.386,19.976c-1.39,0.896-3.278,1.292-5.168,1.688
		c0.256-0.762,0.563-1.475,0.946-2.109C207.428,19.461,209.139,19.715,210.386,19.976z"/>
	<path fill-rule="evenodd" clip-rule="evenodd" fill="#231F20" d="M97.088,28.31c-1.344-3.051,1.774-5.62,4.009-6.33
		c1.067-0.338,1.989,1.491,2.004,2.322C103.147,26.945,99.46,29.207,97.088,28.31z"/>
	<path fill-rule="evenodd" clip-rule="evenodd" fill="#231F20" d="M179.054,66.603c-0.011-1.283,0.419-3.022,0.738-4.325
		c-0.624,0.402-1,1.103-1.582,1.794c-0.473,0.564-1.046,1.556-1.688,1.899c-0.442,0.234-1.186,0.263-1.793,0.421
		c-1.634,0.425-3.316,0.919-5.065,1.267c-0.389-1.509-0.718-3.078-0.946-4.747c-1.294,1.096-2.647,3.05-3.904,4.536
		c-2.39,0.563-4.669,1.239-7.068,1.793c-0.049-1.92-0.44-3.499-0.844-5.064c-1.569,1.56-2.844,3.417-4.326,5.064
		c-2.334,0.724-4.78,1.337-7.067,2.11c0.235-3.395,0.918-7.163,1.583-11.077c0.451-2.661,0.904-5.38,1.476-8.123
		c0.194-0.928,0.586-2.028,0.528-2.637c-0.065-0.701-0.711-1.571-1.055-2.215c-0.404-0.758-0.778-1.403-1.16-2.005
		c1.015-1.435,2.27-2.847,3.481-4.325c0.374-0.456,0.745-1.099,1.161-1.371c0.381-0.251,1.08-0.332,1.582-0.527
		c1.431-0.558,2.873-1.131,4.431-1.794c2.726,3.112,5.001,6.671,6.857,10.655c1.526-1.682,2.869-3.519,4.326-5.275
		c1.443-1.744,2.963-3.444,4.533-5.063c2.144-1.023,4.172-2.161,6.437-3.059c-0.003,2.733-0.659,5.145-0.527,8.122
		c0.217,4.957,1.019,9.989,1.478,14.664c0.377-0.582,0.4-1.334,0.527-2.004c0.607-3.232,1.387-6.774,1.899-10.443
		c0.095-0.69,0.182-1.518,0.315-2.216c0.325-1.695,0.664-2.365,1.583-3.481c1.115-1.358,2.397-2.851,3.48-4.219
		c2.164-0.262,4.245-0.608,6.33-0.95c0.09-0.019,0.099,0.042,0.105,0.105c-1.159,6.885-2.583,14.815-3.904,21.942
		c-0.197,1.072-0.089,2.311-0.422,3.165c-0.171,0.442-0.754,0.971-1.16,1.477c-1.086,1.357-2.469,2.869-3.481,4.22
		C183.526,65.378,181.369,66.069,179.054,66.603z M189.393,36.011c-1.248,8.072-2.888,15.748-4.43,23.524
		c1.584-0.313,3.053-0.744,4.535-1.161c1.187-7.744,2.693-15.169,3.903-22.891c-0.007-0.063-0.016-0.125-0.105-0.106
		C192.042,35.635,190.758,35.863,189.393,36.011z M178.104,36.433c-1.26,0.992-2.887,1.13-4.113,2.004
		c-0.374,0.268-0.675,0.855-1.056,1.265c-0.396,0.43-0.79,0.839-1.16,1.267c-2.082,2.41-4.376,5.793-5.484,8.756
		c-0.23,0.616-0.186,1.316-0.635,1.793c-1.079,0.069-1.145-0.839-1.582-1.793c-1.883-4.124-4.188-8.304-6.961-11.077
		c-1.289,0.61-2.66,1.138-4.114,1.582c0.473,1.426,1.329,2.469,1.899,3.798c-1.625,6.323-2.57,13.324-3.587,20.254
		c1.577-0.463,3.152-0.928,4.747-1.371c0.454-3.375,1.048-7.002,1.478-10.232c0.157-1.182,0.082-2.404,0.527-3.482
		c2.82,3.264,4.364,7.804,5.168,13.081c1.812-0.298,3.429-0.791,5.063-1.266c0.597-5.98,1.77-11.38,5.064-14.663
		c0.156,5.188,0.669,10.021,1.581,14.452c1.78-0.261,3.188-0.892,4.958-1.161c-0.922-7.264-2.43-15.365-1.475-23.208
		c-0.07,0-0.142,0-0.213,0C178.175,36.433,178.142,36.433,178.104,36.433z"/>
	<path fill-rule="evenodd" clip-rule="evenodd" fill="#231F20" d="M257.329,41.602c0.027,0.842-0.099,1.469-0.529,1.898
		c-1.36,1.362-5.239,0.368-5.272-1.265C251.481,40.103,256.3,40.168,257.329,41.602z"/>
	<path fill-rule="evenodd" clip-rule="evenodd" fill="#231F20" d="M140.023,46.454c-0.074,0.456-0.622,0.434-0.738,0.845
		c4.585,5.037,1.938,15.783-5.908,15.19c-1.763-0.133-3.368-1.018-4.536-2.109c-3.675-3.433-3.938-10.697-0.528-14.241
		c1.452-1.509,4.005-2.769,6.858-2.533C137.448,43.794,138.751,45.05,140.023,46.454z M133.377,52.256
		c0.613-0.743,0.283-0.853-0.633-1.372c-1.453-0.821-4.193-0.863-5.485-0.105c-1.119,6.19,2.435,11.552,8.334,10.338
		c0.763-3.683-0.271-7.303-2.743-8.334C132.932,52.558,133.205,52.464,133.377,52.256z"/>
	<path fill-rule="evenodd" clip-rule="evenodd" fill="#231F20" d="M192.98,95.613c-0.475-4.635,1.357-7.808,3.691-10.655
		c0.771-0.94,1.666-2.039,2.53-3.059c0.906-1.07,1.789-2.219,2.639-2.954c2.784-2.406,7.331-3.428,11.498-2.637
		c3.159,0.599,5.481,2.33,7.385,4.536c-1.09,1.431-2.188,2.794-3.375,4.22c-0.853,1.023-1.61,1.65-2.849,2.426
		c-1.616,1.013-3.315,2.058-4.959,3.166c-0.99-1.699-3.209-3-6.014-2.217c-0.315,2.196,0.161,4.572,1.478,6.014
		c0.447,0.488,1.216,1.112,1.794,1.372c2.618,1.172,5.302-0.297,6.54-2.215c1.843,1.005,3.572,2.124,5.379,3.164
		c-1.574,2.224-3.468,4.634-5.379,6.857c-2.219,2.581-5.617,4.374-10.444,4.009c-4.962-0.376-7.826-4.092-9.177-8.228
		c-0.508,0.629-0.194,1.676-0.422,2.426c-0.255,0.837-1.717,2.219-2.321,2.955c-0.322,0.391-0.715,0.939-1.159,1.476
		c-0.442,0.53-0.951,1.226-1.267,1.371c-0.497,0.229-1.466,0.19-2.215,0.317c-4.699,0.788-10.098,1.951-14.875,2.637
		c0.29-1.537,0.401-3.257,0.739-4.747c-0.642,0.424-1.091,1.163-1.688,1.898c-0.505,0.622-1.135,1.678-1.792,2.004
		c-0.539,0.269-1.501,0.251-2.321,0.422c-4.744,1.003-10.682,2.253-15.402,3.165c0.121-1.603,0.386-3.059,0.527-4.642
		c-1.052,0.778-2.089,2.482-3.164,3.586c-6.346,1.428-12.444,3.1-18.883,4.432c0.518-9.35,2.337-18.676,4.008-27.533
		c0.245-1.294,0.196-2.878,0.633-3.903c0.176-0.413,0.787-0.916,1.16-1.371c1.062-1.292,2.358-2.825,3.376-4.115
		c2.333-0.513,4.565-1.13,6.962-1.582c-0.956,7.484-2.631,15.16-3.06,23.524c3.295-0.503,6.879-1.631,10.444-2.215
		c0.842-3.702,1.597-7.591,2.426-11.393c0.271-1.245,0.404-2.68,0.844-3.693c0.48-1.105,1.586-1.953,2.32-2.848
		c0.843-1.028,1.477-2.01,2.32-2.848c2.269-0.334,4.331-0.875,6.54-1.266c-1.23,7.206-2.583,14.294-3.584,21.731
		c3.374-0.493,6.461-1.272,9.809-1.793c0.695-2.612,1.245-5.366,2.006-7.913c-1.279,0.092-2.411,0.335-3.588,0.528
		c-0.028-1.143,0.207-2.128,0.317-3.165c0.107-1.015,0.005-2.177,0.315-3.059c0.377-1.072,1.582-1.95,2.321-2.849
		c0.839-1.02,1.493-2.049,2.32-2.848c6.697-0.829,13.022-2.03,19.728-2.849c-0.511,2.057-1,4.135-1.372,6.33
		c-1.184,1.278-2.209,2.714-3.375,4.008c0.358,0.139,0.735-0.234,0.844,0c-0.024,1.067-0.31,1.951-0.423,2.848
		c-0.123,0.982-0.012,2.01-0.315,2.85c-0.255,0.707-1.251,1.508-2.006,2.426c-0.879,1.074-1.516,2.005-2.109,2.743
		C189.777,96.069,191.481,95.944,192.98,95.613z M178.317,79.156c-0.189,1.288-0.364,2.59-0.425,4.009
		c1.26-0.078,2.733-0.503,3.799-0.422c-1.796,6.643-3.341,13.538-4.325,20.991c5.019-0.818,9.958-1.717,14.875-2.636
		c0.09-1.526,0.357-2.878,0.633-4.22c-3.398,0.331-6.813,1.205-9.917,1.478c0.257-2.381,0.54-4.735,1.163-6.751
		c2.348-0.464,4.891-0.734,7.277-1.161c0.173-1.163,0.34-2.331,0.42-3.586c-2.315,0.285-4.901,0.864-7.066,0.95
		c0.367-1.919,0.572-4,1.056-5.802c2.926-0.485,5.882-0.939,8.86-1.372c0.319-1.3,0.642-2.594,0.844-4.009
		C189.671,77.359,184.075,78.34,178.317,79.156z M208.697,77.257c-5.573,0.469-9.813,5.292-10.127,10.971
		c-0.347,6.233,3.004,12.554,9.283,12.87c3.956,0.198,7.446-1.481,9.284-4.009c-1.16-0.669-2.223-1.435-3.483-2.005
		c-0.771,0.676-1.244,1.292-2.106,1.688c-2.878,1.32-5.945-0.01-7.492-1.793c-4.154-4.789-0.92-14.586,6.962-13.292
		c0.873,0.144,1.884,0.819,2.428,1.266c0.257,0.211,0.5,0.656,0.949,0.633c1.499-1.067,3.246-1.89,4.642-3.059
		C216.686,78.215,213.563,76.848,208.697,77.257z M161.859,79.684c-2.005,8.615-3.98,17.258-5.063,26.794
		c5.151-1.071,10.336-2.11,15.506-3.163c0.274-1.486,0.283-3.235,0.634-4.643c-3.395,0.614-7.119,1.46-10.338,1.899
		c0.568-6.962,2.327-14.014,3.271-20.465c0.058-0.384,0.338-1.279-0.105-1.161C164.454,79.184,163.266,79.543,161.859,79.684z
		 M144.137,79.684c-1.441,0.387-2.939,0.718-4.431,1.055c-1.721,9.463-3.678,18.884-4.431,29.01
		c5.625-1.197,11.014-2.629,16.563-3.902c0.011-1.713,0.491-3.518,0.315-5.064c-3.542,0.887-7.107,1.752-10.864,2.426
		C141.551,94.75,143.283,87.198,144.137,79.684z"/>
	<path fill-rule="evenodd" clip-rule="evenodd" fill="#231F20" d="M241.085,75.886c0.088-0.02,0.098,0.041,0.104,0.105
		c0.027,0.498-0.477,1.89-0.739,2.848c-0.256,0.936-0.3,2.016-0.631,2.743c-0.203,0.441-0.764,1.011-1.161,1.477
		c-1.113,1.304-2.412,2.891-3.587,4.115c-0.69,0.012-1.34,0.067-1.899,0.211c-0.467,0.951-0.611,2.046-0.844,3.059
		c-0.474,2.057-0.838,4.11-1.267,6.33c-0.21,1.093-0.165,2.36-0.527,3.269c-0.182,0.461-0.771,1.006-1.161,1.478
		c-1.1,1.34-2.366,2.842-3.481,4.114c-2.168,0.574-4.431,1.055-6.646,1.583c1.018-6.683,2.568-12.834,4.432-18.672
		c-1.604,0.014-3.696,0.453-5.591,0.527c0.199-1.911,0.606-3.614,0.739-5.591c1.634-1.81,3.041-3.851,4.745-5.59
		C229.639,77.229,235.226,76.632,241.085,75.886z M224.519,78.945c-0.247,1.051-0.409,2.189-0.524,3.376
		c1.946-0.093,3.981-0.659,5.803-0.527c-1.761,5.869-3.533,11.729-4.537,18.355c1.498-0.225,2.824-0.623,4.218-0.95
		c1.052-6.229,2.318-12.24,3.798-18.039c1.989-0.016,3.569-0.44,5.487-0.527c0.236-0.476,0.253-1.16,0.421-1.793
		c0.126-0.473,0.655-1.37,0.318-1.583C234.529,77.841,229.556,78.424,224.519,78.945z"/>
	<path fill-rule="evenodd" clip-rule="evenodd" fill="#231F20" d="M270.727,86.646c0.387-2.004,0.876-3.906,1.371-5.802
		c2.028-0.35,4.065,0.201,4.745,1.793C277.118,86.288,273.652,86.198,270.727,86.646z"/>
	<path fill-rule="evenodd" clip-rule="evenodd" fill="#231F20" d="M95.295,85.381c-3.287,4.284-6.876,8.269-10.338,12.446
		c-1.134,1.369-2.134,2.856-3.481,4.01c-1.456-1.836-4.866-3.14-8.018-2.532c-1.646,0.316-2.968,1.186-4.22,1.793
		c-2.085,6.269-0.035,13.623,4.01,17.406c2.503,2.342,7.934,4.606,11.815,2.003c1.315-2.446,3.272-4.25,4.958-6.329
		c3.259,0.855,6.41,1.818,9.6,2.743c-0.993-1.771-2.286-3.71-3.059-6.014c-0.808-2.403-1.305-5.313-1.161-7.91
		c0.39-7.038,4.626-11.032,8.123-15.297c0.484-0.591,0.972-1.289,1.477-1.793c2.99-2.991,8.158-4.88,13.82-4.537
		c4.585,0.278,7.513,2.194,10.232,4.537c-0.439,0.65-0.957,1.224-1.477,1.793c2.441,3.198,3.781,8.077,3.375,14.136
		c-0.235,3.511-1.407,6.666-3.375,9.284c-0.897,1.19-1.893,2.334-2.849,3.479c-0.994,1.192-1.869,2.514-2.849,3.481
		c-2.472,2.446-6.99,4.526-11.181,4.536c-4.915,0.013-7.79-2.371-10.338-4.957c-0.898,3.561-2.782,5.854-4.853,8.438
		c-1.487,1.855-2.929,3.806-4.431,5.38c-2.654,2.785-6.305,4.812-10.338,5.906c-5.086,1.381-9.38,0.532-13.187-1.475
		c-6.725-3.547-11.405-10.677-13.502-18.884c-1.216-4.76-0.936-9.708,0.421-14.136c1.261-4.114,3.586-7.179,6.013-10.127
		c2.557-3.106,4.871-6.095,8.229-8.017c3.297-1.888,7.225-3.25,12.553-3.587C87.292,80.779,91.663,82.827,95.295,85.381z
		 M80.947,82.321c-3.21,0.205-6.815,1.126-9.493,2.32c-2.651,1.183-4.949,2.9-6.751,4.853c-3.623,3.924-6.167,10.343-5.802,17.301
		c0.181,3.46,1.163,6.413,2.32,9.178c1.145,2.733,2.49,5.079,4.22,7.384c3.376,4.498,8.296,8.23,14.874,8.23
		c4.907,0,8.924-2.122,11.92-4.329c3.272-2.404,5.425-5.259,6.857-9.388c-2.836-0.716-5.455-1.648-8.334-2.319
		c-1.169,2.931-3.25,5.399-6.224,6.541c-5.498,2.106-10.507-0.859-13.292-4.325c-2.242-2.791-3.757-6.396-4.008-10.444
		c-0.301-4.83,1.425-9.041,4.641-11.709c2.221-1.843,6.52-4.104,10.866-2.638c1.146,0.387,1.936,0.997,3.059,1.793
		c1.463-1.374,2.728-2.985,4.01-4.535c1.287-1.558,2.652-3.064,3.797-4.748C90.217,83.354,86.318,81.979,80.947,82.321z
		 M116.182,82.532c-4.642,0.32-7.985,1.94-10.549,4.642c-2.649,2.79-4.937,7.053-4.536,12.553
		c0.368,5.065,2.728,10.484,6.223,13.396c1.941,1.618,4.675,2.834,7.596,2.85c3.734,0.02,7.058-1.396,9.494-3.376
		c3.285-2.669,5.1-6.333,5.38-11.392c0.308-5.562-0.945-10.31-3.692-13.716c0.352-0.597,0.959-0.939,1.265-1.582
		C124.532,83.757,121.315,82.179,116.182,82.532z"/>
	<path fill-rule="evenodd" clip-rule="evenodd" fill="#231F20" d="M256.8,84.009c0,0.421-0.492,0.35-0.631,0.632
		c2.933,3.896,0.245,12.043-6.119,10.972c-2.362-0.397-4.674-3.149-4.958-5.697c-0.493-4.421,2.178-9.309,7.702-8.649
		C254.723,81.497,255.75,82.527,256.8,84.009z M246.252,87.912c-0.17,4.144,1.54,6.406,5.275,6.646
		c0.671-1.978-0.469-3.862-1.688-4.642c0.226-0.336,0.497-0.628,0.738-0.949C249.618,88.093,248.094,87.6,246.252,87.912z"/>
	<path fill-rule="evenodd" clip-rule="evenodd" fill="#231F20" d="M121.878,91.815c0.067,0.744-0.885,0.684-0.843,1.16
		c0.008,0.106,1.256,1.103,1.371,1.267c1.207,1.72,1.691,4.35,1.583,6.751c-0.214,4.765-2.777,8.726-7.173,9.283
		c-3.353,0.425-6.063-1.311-7.596-3.06c-3.702-4.221-3.684-12.184,0.528-15.823c1.588-1.374,4.131-2.595,7.068-2.321
		C119.128,89.288,120.241,90.364,121.878,91.815z M108.06,96.457c-1.691,7.128,2.755,14.262,9.916,12.342
		c0.912-4.281,0.007-9.122-3.27-10.232c0.234-0.575,0.869-0.748,0.95-1.477C113.928,95.417,110.29,95.303,108.06,96.457z"/>
	<path fill-rule="evenodd" clip-rule="evenodd" fill="#231F20" d="M45.398,144.455c1.561-0.25,4.954,0.612,5.168,2.005
		c0.194,1.261-1.111,2.626-2.32,2.848c-2.083,0.382-5.53-1.158-5.486-2.954C42.79,145.159,44.039,144.675,45.398,144.455z"/>
	<path fill-rule="evenodd" clip-rule="evenodd" fill="#231F20" d="M261.128,153.527c0.544,0.366,0.996,0.83,1.475,1.267
		c-0.442,0.646-0.896,1.283-1.687,1.582C260.964,155.402,260.979,154.402,261.128,153.527z"/>
	<path fill-rule="evenodd" clip-rule="evenodd" fill="#231F20" d="M246.569,160.385c-0.91,1.656-1.856,3.278-3.271,4.43
		c0.053-0.93-0.576-1.42-0.422-2.108C243.024,162.048,245.834,160.665,246.569,160.385z"/>
	<path fill-rule="evenodd" clip-rule="evenodd" fill="#231F20" d="M76.939,163.655c-0.693-0.187-1.56-0.199-2.215-0.423
		c0.63-0.636,1.489-1.045,2.215-1.583C77.428,161.996,76.969,163.133,76.939,163.655z"/>
	<path fill-rule="evenodd" clip-rule="evenodd" fill="#231F20" d="M87.7,164.92c-0.541,0.599-1.536,0.678-2.427,0.844
		c-0.878,0.167-1.869,0.365-2.847,0.317c0.337-0.753,0.68-1.501,1.266-2.005C85.113,164.271,86.356,164.646,87.7,164.92z"/>
	<path fill-rule="evenodd" clip-rule="evenodd" fill="#231F20" d="M233.382,170.617c-1.271-2.916,1.358-5.393,3.376-6.33
		c1.147-0.53,2.26,0.699,2.426,1.688C239.669,168.849,236.038,171.543,233.382,170.617z"/>
	<path fill-rule="evenodd" clip-rule="evenodd" fill="#231F20" d="M129.686,174.623c-1.242,1.047-2.927,1.646-4.854,2.007
		c-0.01-0.925,0.335-1.494,0.739-2.007C126.911,174.432,128.308,174.567,129.686,174.623z"/>
	<path fill-rule="evenodd" clip-rule="evenodd" fill="#231F20" d="M129.052,178.739c-0.864,0.929-3.051,1.302-4.536,0.95
		c-0.176-0.175-0.084-0.619-0.106-0.95C125.499,178.051,127.836,178.339,129.052,178.739z"/>
	<path fill-rule="evenodd" clip-rule="evenodd" fill="#231F20" d="M310.813,93.925c-1.566-17.337-10.195-29.975-19.727-40.192
		c-4.811-5.156-10.779-9.68-16.351-13.608c-5.853-4.124-12.276-8.002-18.884-11.077c-13.562-6.31-28.243-11.668-44.834-15.085
		c-8.213-1.691-16.897-2.965-26.055-3.902c-8.878-0.91-19.237-1.621-28.906-1.161c-0.069,0.004-0.141,0-0.21,0
		c-9.801,0-19.171,0.871-27.955,2.004c-8.809,1.137-17.086,2.937-25.107,4.853C86.697,19.6,72.208,25.165,59.216,32.108
		c-6.439,3.44-12.738,7.547-18.144,11.815c-11.151,8.802-20.848,18.89-26.689,33.229c-2.955,7.254-4.982,16.051-4.114,25.529
		c1.204,13.149,6.665,23.749,12.975,31.963c10.814,14.074,25.613,24.917,42.197,32.704c3.375,1.583,6.772,3.224,10.337,4.641
		c10.721,4.262,21.996,7.784,34.496,10.444c20.009,4.26,45.66,6.3,69.097,4.43c32.454-2.588,59.296-10.292,82.282-22.575
		c12.992-6.943,24.174-15.35,33.546-26.373c4.453-5.235,8.56-11.305,11.498-18.46C309.595,112.399,311.675,103.467,310.813,93.925z
		 M262.181,42.973c-0.205,1.517-1.265,2.18-1.688,3.48c1.555-0.349,2.244-2.112,4.115-1.793c-0.176,1.203-1.022,2.316-1.582,3.481
		c-0.45,0.936-1.044,2.72-2.426,2.11c0.286-1.473,1.386-2.13,1.688-3.586c-1.296-0.039-2.479,1.991-4.011,1.371
		c0.139-1.197,0.995-1.678,1.371-2.637c-1.406-0.103-2.022,2.05-3.585,1.792c0.09-1.24,1.536-1.583,2.637-2.32
		C259.726,44.186,260.811,42.678,262.181,42.973z M258.277,42.973c-0.859,1.502-3.436,2.758-5.907,2.109
		c-0.92-0.241-2.131-1.116-2.216-2.004c-0.096-1.033,0.99-2.246,1.479-2.637c0.748-0.603,1.518-0.959,2.953-1.055
		C257.152,39.215,259.748,40.405,258.277,42.973z M243.931,38.543c0.957-1.501,6.117-3.425,8.123-1.794
		c0.1,1.13-0.726,1.86-1.477,1.794c-0.308-0.339,0.17-0.534,0.104-0.95c-1.047-0.499-5.684,0.117-5.696,1.371
		c-0.007,0.825,2.663,1.521,3.587,1.583c0.476,0.032,0.97-0.265,1.372,0c0.061,0.659-0.475,0.722-0.738,1.056
		C246.876,41.658,242.271,41.148,243.931,38.543z M238.235,28.098c0.026-0.114,0.209-0.071,0.211-0.21
		c1.919,0.225,3.518,0.772,4.852,1.582c-0.664,2.521-4.545-1.19-5.591,1.055c1.474,0.706,3.755,0.606,5.063,1.478
		c-0.144,1.1-1.358,0.912-2.321,0.843c-2.221-0.158-4.797-1.15-5.063,1.16c1.258,0.745,3.377-0.229,4.958,0.211
		c-0.07,1.572-1.979,1.386-3.796,1.688c-1.154,0.191-2.31,0.493-2.955,0.211c-0.101-2.542,1.761-4.538,3.164-6.225
		C237.263,29.286,237.673,28.518,238.235,28.098z M243.405,37.91c-0.168,1.236-1.687,1.132-2.743,0.739
		C240.504,37.005,242.632,37.269,243.405,37.91z M229.584,25.778c0.273-0.503,0.946-1.198,1.688-0.844
		c0.056,1.79-1,3.352-0.95,5.485c0.54,0.002,0.931-0.508,1.373-0.844c0.444-0.336,0.908-0.686,1.369-1.054
		c0.818-0.652,1.612-2.048,2.85-1.477c-0.395,1.79-2.261,2.51-3.48,3.481c-1.225,0.975-2.213,2.714-4.117,2.849
		c-0.188-0.919,0.171-2.449,0.424-3.904C228.982,28.082,229.186,26.514,229.584,25.778z M224.731,27.994
		c0.277-0.559,0.56-1.2,0.843-1.793c0.296-0.611,0.466-1.365,0.74-1.794c0.321-0.502,1.451-1.418,2.109-0.528
		c-0.4,1.206-1.391,2.09-2.214,3.798c-0.234,0.485-0.55,1.317-0.845,2.109c-0.378,1.014-0.684,2.546-2.215,1.688
		C223.13,30.32,224.109,29.254,224.731,27.994z M217.981,24.302c0.845-1.542,1.239-2.923,2.53-3.482
		c0.236-0.102,0.588,0.186,0.739,0.422c-0.057,0.893-0.535,1.364-1.16,1.688c-0.692,1.381-1.746,2.403-2.109,4.114
		c1.553,0.724,3.362-0.627,4.957-0.211c-0.011,1.504-1.669,1.605-2.848,1.898c-1.242,0.309-2.609,0.715-3.796,0.844
		C215.99,27.524,217.108,25.888,217.981,24.302z M204.056,18.92c0.3-1.141,0.891-1.555,2.533-1.477
		c2.036,0.098,6.091,0.233,6.221,1.583c0.104,1.059-1.558,2.085-2.318,2.531c-1.205,0.708-2.254,0.993-3.377,1.477
		c1.063,0.813,4.062,1.423,2.849,3.166c-2.167-0.188-3.223-1.491-5.486-1.583c-0.211,0.854-1.131,1.847-2.215,1.161
		c-0.015-1.247,0.686-2.125,1.056-3.059c0.377-0.951,0.775-1.842,1.057-2.954C204.649,19.435,204.05,19.306,204.056,18.92z
		 M195.829,16.073c0.871-0.369,1.873-0.433,2.846-0.528c0.755-0.074,1.44-0.24,2.112,0c0.675,0.241,1.273,1.177,1.369,1.477
		c1.188,3.625-2.979,6.935-5.697,7.279c-2.102,0.266-4.393-0.214-4.642-2.004C191.447,19.611,193.998,16.847,195.829,16.073z
		 M187.073,13.962c1.776,0.39,4.232-0.031,5.801,0.317c0.412,1.302-0.859,1.804-2.321,1.582c-0.911,0.919-1.499,3.131-1.898,5.065
		c-0.26,1.252-0.313,2.298-1.898,2.108c-0.588-0.83,0.253-1.547,0.527-2.215c0.573-1.396,0.937-2.99,1.266-4.642
		c-0.629-0.37-1.637,0.292-2.11-0.21C186.158,15.208,186.539,14.258,187.073,13.962z M178.317,15.44
		c1.551-1.302,3.529-2.642,5.803-2.426c0.86,0.743,0.504,2.819-0.636,3.06c-0.538,0.047-0.237-0.747-0.314-1.161
		c-3.038,0.62-5.212,2.104-6.54,4.431c0.121,0.566,0.712,0.673,1.159,0.739c1.996,0.29,4.379-0.722,5.906-1.161
		c0.22,0.484-0.059,1.326-0.422,1.688c-0.884,0.886-7.231,2.398-8.017,0.422C175.072,18.511,176.66,16.829,178.317,15.44z
		 M167.767,19.237c0.165-2.535,1.348-5.206,2.007-7.068c0.793-0.294,2.059-0.276,3.162-0.316c0.745-0.027,1.64-0.337,2.004,0.316
		c-0.256,2.309-4.73,0.403-4.956,2.743c1.643,0.235,3.518-0.766,5.273-0.422c0.149,1.432-1.464,1.577-2.638,1.899
		c-1.863,0.511-3.873,0.504-3.482,2.743c1.978-0.069,3.035-1.604,4.749-1.583c0.23,1.707-1.565,2.012-2.954,2.848
		c-0.933,0.564-1.747,1.271-2.638,1.373C167.751,21.271,167.694,20.358,167.767,19.237z M160.805,15.018
		c0.299-1.485,0.434-3.255,1.793-3.27c0.059,0.152,0.165,0.258,0.316,0.316c0.256,0.792-0.393,1.307-0.632,1.898
		c-0.569,1.404-0.771,2.948-0.739,4.642c1.946-0.164,2.692-1.527,4.536-1.793c0.559,1.46-1.154,2.158-2.109,2.743
		c-1.099,0.671-2.241,1.471-3.376,1.793C159.74,19.595,160.397,17.043,160.805,15.018z M152.894,15.229
		c0.227-1.336,0.6-3.548,1.582-3.376c1.212,0.212,0.065,1.837-0.106,2.321c-0.493,1.401-0.63,3.15-0.527,4.536
		c1.697-0.031,2.7-1.658,4.537-1.899c0.439,1.546-1.223,2.254-2.109,2.849c-1.042,0.697-2.19,1.464-3.271,1.897
		C152.163,20.088,152.553,17.228,152.894,15.229z M141.71,18.393c0.205-1.999,1.545-3.87,2.533-4.641
		c0.945-0.739,2.406-1.396,3.797-1.583c2.395-0.321,3.39,1.647,3.06,4.114c-0.327,2.439-2.588,5.117-5.38,5.696
		c-1.13,0.235-2.607,0.241-3.375-0.527C141.605,20.714,141.595,19.517,141.71,18.393z M136.331,14.28
		c0.993-0.8,1.707-1.507,3.165-1.478c0.928,0.564,0.942,2.693-0.106,3.165c-0.63,0.067-0.2-0.925-0.633-1.055
		c-2.523,1.134-4.471,2.843-5.38,5.591c0.3,0.603,1.081,0.462,1.582,0.423c1.005-0.082,2.444-0.627,3.271-1.057
		c0.742-0.385,1.208-1.125,2.003-1.159c0.339,0.348,0.148,1.275-0.104,1.687c-0.544,0.884-7.512,4.534-8.018,1.373
		C131.647,18.877,134.526,15.731,136.331,14.28z M124.41,14.596c1.628-0.536,2.099,2.406,0.844,3.165
		c-0.587,0.024-0.326-0.801-0.633-1.056c-2.404,1.289-4.357,3.027-5.064,6.013c0.634,0.701,1.77,0.252,2.532,0
		c0.787-0.261,1.688-0.661,2.32-1.055c0.71-0.444,1.164-1.153,1.899-1.267c0.383,0.541,0.116,1.554-0.211,2.005
		c-0.584,0.806-7.659,5.209-7.807,0.844C118.187,20.152,121.967,15.401,124.41,14.596z M116.604,16.494
		c-0.012,1.828-0.053,4.443,0.316,6.33c0.143,0.731,0.508,1.6,0.317,2.215c-0.1,0.316-0.705,0.794-1.056,0.738
		c-0.756-0.121-0.521-1.046-0.527-2.004c-0.007-1.017-0.123-2.839-0.317-4.22C115.156,18.257,114.536,16.36,116.604,16.494z
		 M105.633,26.095c0.084-0.971,0.538-2.497,0.633-4.008c0.09-1.431-0.024-3.276,1.054-3.693c1.234,0.915,1.156,3.328,2.006,4.748
		c0.86-1.566,0.139-5.274,1.898-5.592c0.625,0.397,0.893,1.234,1.16,2.005c0.262,0.749,0.512,1.528,0.845,2.321
		c0.225,0.533,0.65,1.368,0.843,2.32c0.149,0.726,0.203,2.281-0.737,2.215c-0.725-0.049-0.926-1.691-1.161-2.427
		c-0.345-1.075-0.607-1.748-1.055-2.426c-0.448,0.698-0.585,1.67-0.844,2.849c-0.193,0.879-0.249,2.448-1.267,2.321
		c-1.04-0.131-0.893-2.993-1.583-3.693c-0.641,0.785-0.325,2.644-0.422,3.798c-0.046,0.559-0.308,1.354-0.738,1.371
		C105.496,28.235,105.563,26.891,105.633,26.095z M95.611,25.672c0.362-2.725,2.804-4.9,5.063-5.696
		c0.087-0.032,0.223,0.012,0.317,0c2.587-0.321,3.682,3.126,3.059,5.696c-0.407,1.678-1.96,3.632-3.375,4.431
		c-0.908,0.512-2.779,1.044-3.798,0.422C95.771,29.85,95.345,27.668,95.611,25.672z M86.855,30.631
		c0.256-2.492,2.705-6.997,4.748-7.701c1.171-0.405,2.107,2.16,1.054,3.059c-0.576,0.013-0.487-0.639-0.738-0.95
		c-1.111,0.583-2.072,1.782-2.743,2.955c-0.642,1.12-1.54,2.582-1.056,4.114c1.485-0.03,3.037-0.913,4.115-1.794
		c0.736-0.601,1.054-1.647,2.004-1.897c0.851,2.289-1.166,3.356-2.848,4.536c-1.507,1.056-4.049,2.387-4.536-0.212
		C86.763,32.246,86.783,31.339,86.855,30.631z M83.479,34.217c0.499-0.662,1.18-1.141,2.005-1.477
		c1.625,1.167-0.555,2.94-1.478,3.271C83.363,35.882,83.488,34.982,83.479,34.217z M75.462,32.424
		c0.56-0.068,0.988,1.115,1.266,1.582c0.427,0.718,0.655,1.2,1.055,1.688c0.592-1.328-0.55-3.787,0.843-4.22
		c0.732,0.639,1.058,1.685,1.583,2.531c0.694-1.358-1.203-3.661,0.421-4.008c0.632,0.706,0.434,1.979,0.528,3.165
		c0.12,1.521,0.919,3.379-0.106,4.22c-1.033-0.725-1.38-2.136-2.11-3.166c-0.48,1.267,0.466,3.628-0.632,4.432
		c-0.916-0.673-1.384-1.734-2.11-2.954C76.115,35.55,74.023,32.599,75.462,32.424z M68.5,36.116c1.203,0.767,1.551,2.388,2.638,3.27
		c0.272-1.503-0.604-3.504,0.317-4.325c1.073,0.402,1.134,1.819,2.004,2.426c0.239-1.477-1.239-3.303-0.105-4.009
		c0.728,0.25,0.646,1.198,0.738,2.215c0.178,1.987,1.218,4.179,0.317,5.063c-0.743-0.128-0.931-0.96-1.266-1.478
		c-0.35-0.539-0.824-0.992-1.055-1.582c-0.501,1.437,0.703,3.535-0.316,4.537c-0.928-0.525-1.604-1.795-2.321-2.849
		c-0.26-0.383-0.785-0.925-1.055-1.477C68.138,37.386,67.728,36.59,68.5,36.116z M61.432,40.546
		c0.122,0.018,0.188-0.023,0.211-0.105c0.792,0.089,1.188,0.853,1.582,1.371c0.415,0.542,0.746,1.151,1.266,1.583
		c0.396-1.287-0.931-3.569,0.212-4.325c0.926,0.514,1.273,1.609,2.004,2.32c0.062-1.117-0.601-2.421-0.738-3.692
		c0.258-0.059,0.225-0.408,0.632-0.316c0.636,0.896,0.764,2.316,1.055,3.586c0.273,1.194,0.956,2.595,0.316,3.586
		c-1.346-0.376-1.543-2.063-2.637-2.743c-0.153,1.553,0.894,3.135,0.106,4.326c-0.689,0.025-1.003-0.721-1.372-1.161
		c-0.372-0.442-0.829-0.842-1.161-1.266C62.255,42.875,61.263,41.8,61.432,40.546z M34.321,142.872
		c0.908-1.91,3.101,0.273,5.168-0.21c-1.407-1.274-3.387-2.054-4.641-3.586c0.84-1.468,3.578-1.492,5.908-1.371
		c1.408,0.071,2.873,0.271,3.797,0.631c-0.427,2.195-4.233,0.213-6.646,0.74c1.076,1.422,3.696,2.21,5.064,3.69
		c-0.223,1.031-1.194,0.989-2.533,1.057C38.316,143.928,35.44,143.81,34.321,142.872z M41.811,145.087
		c0.894-0.987,2.41-1.878,4.22-2.109c2.264-0.286,5.748,0.778,6.224,2.109c1.076,3.014-2.467,5.34-5.169,5.593
		C43.263,151.036,38.976,148.223,41.811,145.087z M51.833,152.366c-1.246,0.331-1.293,2.939-3.164,1.793
		c-0.275-0.988,0.598-1.221,1.16-1.793c0.504-0.513,0.854-1.198,1.372-1.793c0.16-0.183,0.369-0.334,0.527-0.527
		c0.653-0.803,1.121-1.848,1.794-2.321c1.443-1.016,2.584-0.051,4.219,0.843c0.935,0.514,2.165,0.854,2.426,1.689
		c-1.569,1.575-3.886-1.349-5.696-1.055c-0.713,0.116-0.922,0.697-1.371,1.266c1.317,0.934,3.417,1.084,4.642,2.111
		C56.997,154.792,53.974,151.797,51.833,152.366z M60.377,157.22c-0.3,0.399-0.832,1.312-1.265,1.794
		c-0.43,0.476-1.575,1.092-1.899,0.211c-0.316-0.856,0.959-1.383,1.266-1.688c1.082-1.082,2.133-2.666,2.954-3.905
		c-0.409-0.538-1.606-0.293-1.898-0.948c0.002-0.642,0.722-1.62,1.16-1.583c0.617,0.055,0.923,0.47,1.688,0.844
		c1.317,0.646,3.063,0.854,3.692,1.479c0.028,1.608-1.913,1.146-2.743,0.632C62.026,154.759,61.375,155.89,60.377,157.22z
		 M66.601,164.182c0.214-1.933,1.194-3.094,1.688-4.747c-1.815,0.401-2.715,3.189-5.168,2.953c-0.015-1.178,0.543-2.731,1.16-4.323
		c0.221-0.569,0.537-1.313,0.844-2.006c0.467-1.053,0.984-2.408,2.32-1.792c-0.017,0.123,0.024,0.188,0.106,0.212
		c-0.396,1.853-1.302,3.197-1.793,4.956c0.578-0.239,1.398-0.678,2.321-1.37c0.983-0.74,1.915-2.227,2.954-1.162
		c-0.3,1.388-1.017,2.36-1.371,3.692c0.451-0.342,1.361-0.877,2.215-1.792c0.632-0.677,1.249-2.158,2.215-1.16
		c-0.241,1.412-1.672,2.308-2.742,3.269c-0.493,0.442-1.116,0.867-1.582,1.372C68.938,163.182,68.356,164.567,66.601,164.182z
		 M76.729,168.402c-0.508-0.634,0.101-1.641,0.105-2.428c-0.432-0.515-1.293-0.688-2.11-0.843c-0.741-0.143-1.817-0.437-2.532-0.317
		c-1,0.17-1.35,1.504-2.321,1.055c-0.291-1.662,1.9-2.573,3.376-3.481c0.712-0.436,1.528-0.86,2.215-1.371
		c1.026-0.761,1.884-1.841,3.376-1.582c0.299,1.127-0.084,2.625-0.212,4.221C78.453,165.822,78.786,168.361,76.729,168.402z
		 M86.644,171.146c-1.474-0.181-2.521-1.107-3.903-1.689c-0.434-0.185-0.979-0.531-1.371-0.423c-0.386,0.109-0.45,0.854-0.844,1.054
		c-0.621,0.315-1.053,0.247-1.583-0.314c-0.118-0.878,0.686-1.306,1.055-1.9c0.714-1.15,1.037-2.494,1.794-3.691
		c0.277-0.453-0.345-0.354-0.211-0.949c0.688-2.01,3.711-0.927,5.802-0.423c1.263,0.308,2.812,0.538,2.849,1.478
		c0.04,1.023-1.672,1.83-2.532,2.216c-1.262,0.563-2.331,0.884-3.587,1.159C84.957,168.693,87.857,169.403,86.644,171.146z
		 M96.771,168.297c-0.381,2.536-7.231-0.613-7.068,2.741c1.328,0.856,3.336-0.679,4.958-0.211c0.113,1.442-1.591,1.475-2.848,1.794
		c-1.23,0.313-2.579,1.091-3.693,0.845c-0.306-2.738,1.354-4.939,2.533-6.752c0.441-0.677,0.782-1.46,1.266-1.899
		c0.026-0.113,0.209-0.072,0.212-0.21c1.815,0.225,3.741,0.335,4.958,1.159c-0.574,2.363-4.88-0.704-5.485,1.584
		C93.032,167.957,95.559,167.47,96.771,168.297z M110.802,172.516c0.223,0.723,1.454,1.47,1.16,2.532
		c-0.114,0.412-0.665,0.819-1.477,0.739c-0.17-0.639-0.605-1.015-0.95-1.478c-0.497,0.618-0.606,2.097-1.687,1.794
		c-0.311-0.66,0.137-1.389,0.317-1.899c-0.941-0.019-1.557,1.739-2.849,1.37c-0.195-1.571,1.479-2.174,2.532-2.85
		c0.036-0.729-1.044-0.803-1.16-1.475c-0.123-0.707,0.424-1.268,1.16-1.583c0.508,0.371,0.861,0.896,1.371,1.268
		c0.418-0.857,0.544-2.541,1.899-2.112c0.29,0.838-0.356,1.503-0.528,2.216c1.054-0.315,1.648-1.094,2.849-1.265
		C113.811,171.522,111.87,171.856,110.802,172.516z M117.765,166.714c0.148,0.812-0.473,0.435-0.739,0.422
		c-1.061-0.048-2.273-0.497-3.271-0.736c-21.253-5.146-40.49-13.649-54.854-25.849c-7.474-6.346-14.646-14.292-18.883-24.156
		c-2.23-5.193-3.838-11.379-3.903-17.616c-0.069-6.597,1.158-12.657,3.375-18.146c3.999-9.894,10.771-17.897,18.462-24.58
		C73.303,42.716,93.46,33.84,116.709,28.731c10.373-2.279,21.113-4.008,33.125-4.536c10.568-0.464,22.352-0.234,32.173,0.844
		c24.812,2.724,46.215,9.233,63.929,19.093c11.576,6.445,22.249,14.713,29.748,25.634c3.664,5.335,6.937,11.791,8.44,19.2
		c1.648,8.126,0.778,16.786-1.794,24.156c-4.539,13.005-14.263,23.327-24.475,30.91c-10.799,8.021-23.047,13.805-36.922,18.463
		c-13.605,4.564-29.478,7.591-46.519,8.859c-17.742,1.319-35.534-0.146-51.481-2.953c0.395-0.393,1.111-0.57,1.688-0.74
		c0.661-0.193,1.225-0.343,1.899-0.314c2.164,0.091,4.4,0.751,6.646,1.055c6.691,0.905,13.919,1.356,21.203,1.686
		c10.061,0.458,19.531-0.126,29.011-1.158c26.68-2.907,50.449-11.076,68.567-23.209c5.995-4.014,11.575-8.72,16.354-14.241
		c4.634-5.355,8.885-11.5,11.498-19.094c2.684-7.801,3.732-16.958,0.843-26.162c-0.17-0.542,0.306-1.335,0.424-2.003
		c0.424-2.449-0.56-4.591-2.006-5.592c-0.67-0.465-1.335-0.509-1.793-1.161c-0.56-0.794-0.891-1.798-1.371-2.638
		c-7.241-12.614-17.854-21.469-30.698-28.904c-20.109-11.641-45.027-18.465-75.214-20.148c-23.13-1.29-45.47,1.933-63.613,7.279
		c-0.564,0.167-1.027,0.354-1.582,0.422c-1.819,0.223-3.55,0.251-5.275,0.632c-3.423,0.757-5.932,1.734-8.333,3.587
		c-0.705,0.543-1.355,1.235-2.215,1.688c-1.727,0.91-3.661,1.667-5.487,2.531c-5.313,2.519-10.53,5.452-15.295,8.756
		c-6.115,4.239-12.039,9.303-16.879,15.191c-4.804,5.842-8.933,12.517-11.076,20.993c-1.155,4.562-1.729,9.205-1.267,14.348
		c1.298,14.426,7.96,24.034,15.718,32.385c5.152,5.543,11.349,10.2,17.829,14.241c12.389,7.723,26.641,13.318,42.935,17.194
		c0.357,0.084,2.149,0.342,2.321,0.738C117.865,165.994,117.696,166.191,117.765,166.714z M128.735,120.191
		c2.038-0.563,4.428-0.778,6.224-1.581c0.089-0.021,0.1,0.042,0.106,0.104c-1.785,10.665-2.583,22.313-2.954,34.393
		c4.632-0.68,9.465-2.068,14.347-2.85c-0.122,2.198-0.36,4.283-0.421,6.54c-8.044,1.064-15.193,3.022-22.048,5.275
		C123.687,146.365,126.499,133.615,128.735,120.191z M274.103,88.967c2.19,2.169,4.484,4.237,6.434,6.646
		c-0.988,0.559-2.075,1.018-3.165,1.477c-0.659-0.623-1.127-1.393-1.688-2.11c-1.604-2.059-3.551-4.028-5.591-5.802
		c-0.859,2.515-1.276,5.474-1.898,8.229c-1.201,0.246-2.761,0.677-3.798,0.738c1.258-7.111,3.862-12.875,5.275-19.831
		c2.904-0.258,5.814-0.113,7.807,0.737c1.874,0.801,3.1,3.166,2.214,5.803C278.925,87.133,276.289,88.481,274.103,88.967z
		 M278.532,91.71c-0.771-0.671-1.436-1.449-2.215-2.11c0.503-0.34,1.065-0.622,1.688-0.843
		C278.119,89.802,278.393,90.689,278.532,91.71z M217.981,38.543c-1.557,0.729-2.93,1.642-4.327,2.532
		c-0.771-0.251-1.089-0.916-1.688-1.266c-1.852-1.087-4.829-0.88-6.748,0.211c-4.593,2.607-4.823,11.278,0.316,13.713
		c0.422,0.201,1.124,0.459,1.58,0.527c2.813,0.424,4.161-0.924,5.695-2.004c0.882,0.736,1.918,1.32,2.955,1.898
		c-1.987,2.566-5.238,4.022-9.492,3.587c-1.659-0.17-3.325-1.048-4.432-2.005c-2.354-2.033-3.727-5.82-3.693-9.706
		c0.051-5.836,4.419-10.583,10.022-11.076c3.531-0.312,6.675,0.672,8.649,2.215C217.269,37.521,217.874,37.962,217.981,38.543z
		 M92.025,59.43c1.059,4.292,4.199,7.94,7.911,9.071c4.097,1.25,7.996-0.759,9.917-3.059c0.386-0.463,0.59-0.986,1.16-1.793
		c2.342,0.788,4.422,1.837,6.752,2.638c-1.811,3.987-5.087,6.895-9.495,8.544c-2.22,0.832-4.618,1.403-7.806,1.161
		c-4.829-0.365-8.589-3.384-11.182-6.962c-2.628-3.629-4.556-8.513-4.853-13.292c-0.445-7.173,2.848-13.301,6.646-16.562
		c2.967-2.547,6.952-3.984,12.132-4.326c1.59-0.105,3.849-0.199,5.485,0.106c2.958,0.551,5.276,1.853,7.596,3.481
		c-2.293,2.525-5.019,4.617-7.385,7.067c-0.933-0.656-1.581-1.352-2.532-1.793c-4.4-2.041-9.476,0.404-11.709,2.637
		C91.305,49.705,90.897,54.86,92.025,59.43z M117.87,163.55c-24.261-5.751-44.802-14.844-59.918-29.96
		c-5.029-5.029-9.349-10.864-12.343-17.617c-1.548-3.493-2.878-7.575-3.481-11.499c-2.232-14.55,3.323-26.167,9.388-34.495
		c4.134-5.674,9.46-10.611,15.086-14.875c4.321-3.275,8.808-6.059,13.714-8.756c1.698-0.934,3.448-1.835,5.169-2.743
		c0.12,0.021,0.058,0.106,0,0.106c-3.482,4.204-7.143,9.264-6.646,16.984c0.158,2.467,0.58,4.531,1.265,6.646
		c2.343,7.235,7.379,14.644,16.351,15.296c3.169,0.231,5.962-0.565,8.439-1.582c3.954-1.624,6.32-4.055,8.861-7.174
		c1.679-2.061,3.257-3.714,4.536-6.012c0.787,0.684,1.202,1.591,1.899,2.319c1.859,1.94,4.73,3.758,8.545,3.798
		c3.419,0.036,7.113-1.395,9.283-3.165c1.59-1.297,3.083-3.266,4.748-5.275c1.592-1.92,3.113-3.93,3.903-6.013
		c1.937-5.104,1.398-12.529-1.372-16.351c0.311-0.674,0.923-1.047,1.266-1.688c-2.48-2.593-5.378-4.389-9.81-4.642
		c-3.725-0.212-7.281,0.748-9.705,2.216c-2.439,1.475-3.886,3.635-5.908,6.012c-1.94,2.281-3.684,4.314-4.747,7.174
		c-1.407,3.779-1.035,8.887,0.422,12.448c-2.16-0.76-4.245-1.592-6.225-2.532c-0.845,0.607-1.374,1.449-2.004,2.215
		c-0.588,0.714-1.173,1.698-1.898,2.215c-1.103,0.787-2.949,1.159-4.22,1.161c-3.528,0.005-6.57-2.475-8.229-5.38
		c-1.721-3.017-2.169-7.459-1.055-11.182c0.562-0.584,1.488-0.898,2.321-1.161c0.888-0.279,1.881-0.526,2.849-0.527
		c2.689-0.004,4.676,1.59,6.012,2.953c4.804-4.338,9.692-8.594,13.608-13.818c-1.884-1.914-4.23-3.366-7.173-4.221
		c13.893-3.829,30.427-6.434,48.209-6.434c17.859,0,34.618,2.08,48.842,5.801c-4.569,0.47-6.846,2.953-9.071,5.591
		c-1.027,1.216-2.124,2.686-3.271,4.114c-1.707,2.127-3.009,4.26-3.059,7.807c-0.104,7.285,4.039,13.645,11.922,13.081
		c2.84-0.205,5.19-1.188,6.962-2.849c1.184-1.111,2.047-2.56,3.059-3.797c1.01-1.238,2.177-2.297,3.06-3.693
		c-1.559-1.221-3.363-2.192-5.063-3.27c-0.897,0.642-1.293,1.464-2.217,1.899c-4.109,1.934-8.006-2.047-7.279-6.752
		c2.75-0.817,4.828,0.584,5.803,2.216c1.623-1.037,3.231-1.839,4.957-2.849c1.596-0.932,2.703-2.218,3.903-3.691
		c0.757-0.929,1.402-1.902,2.216-2.743c-0.08-0.719-1.421-1.634-1.476-1.899c11.911,3.856,22.791,9.02,32.174,15.507
		c9.316,6.442,17.534,14.268,22.996,24.58c-0.762-0.124-1.562-0.049-2.319,0c-0.808,0.052-1.804-0.087-2.428,0.105
		c-0.738,0.227-1.892,2.103-2.426,2.743c-0.881,1.057-1.673,1.945-2.32,2.743c-0.017,3.066-1.28,5.736-2.003,8.439
		c0.29-2.409,0.723-6.738-0.633-8.65c0.062-0.746,0.695-0.92,0.949-1.477c-2.359-3.797-8.823-6.256-14.665-3.903
		c-3.126,1.259-5.443,4.819-7.7,7.49c-2.17,2.569-4.216,5.266-3.798,10.443c0.409,5.047,3.697,10.027,8.755,10.55
		c3.749,0.386,6.984-0.797,8.968-2.531c1.415-1.238,2.533-3.019,3.798-4.536c1.301-1.563,2.788-3.059,3.375-4.854
		c-0.069,0.909-0.395,1.833-0.632,2.742c-0.703,2.692-1.453,5.775-2.006,8.755c1.112-0.096,2.104-0.313,3.06-0.527
		c0.998-0.224,2.133-0.251,2.954-0.633c0.946-0.439,1.465-1.635,2.11-2.427c0.743-0.906,1.423-1.668,2.214-2.32
		c1.274,1.61,2.54,3.229,3.798,4.852c1.519-0.796,3.509-1.348,4.96-2.215c0.622-0.371,0.943-0.994,1.477-1.266
		c-1.487,16.194-9.461,26.798-18.883,35.551c-9.38,8.713-21.141,15.228-34.074,20.358c-12.699,5.039-27.667,8.863-43.885,10.551
		c-16.414,1.707-35.086,1.577-51.163-0.95c0.336-0.4,0.893-0.308,1.371-0.422c2.149-0.508,4.901-1.063,7.49-1.478
		c1.022-0.162,2.275-0.077,3.061-0.423c0.817-0.358,1.374-1.583,1.899-2.214c0.675-0.816,1.288-1.463,1.898-2.004
		c-0.16,1.068-0.2,2.263-0.422,3.269c1.421-0.14,2.767-0.697,4.219-1.16c0.979-0.311,2.078-0.611,3.166-0.949
		c1.185-0.368,1.52-0.754,2.321-1.687c0.846-0.987,1.467-1.917,2.32-2.955c0.403-0.489,0.968-0.862,1.162-1.372
		c0.253-0.672,0.189-1.761,0.316-2.635c0.826-5.714,1.698-12.068,2.426-17.935c0.447,1.792,0.728,3.71,1.055,5.697
		c0.761,4.592,1.794,9.486,2.532,14.345c0.144,0.945,0.49,2.102,0.423,2.85c-0.102,1.079-1.161,1.909-1.372,2.952
		c3.119-0.817,6.017-1.859,9.072-2.741c1.153-1.352,2.305-2.691,3.48-4.113c1.543-1.869,2.858-4.564,4.115-6.964
		c2.852-5.447,5.882-11.229,8.229-17.089c0.142,0.989-0.149,2.448-0.212,3.587c1.484-0.097,2.66-0.504,4.114-0.633
		c-2.005,7.452-3.299,15.618-4.325,24.051c7.144-1.365,14.254-2.763,21.415-4.114c1.031-1.144,2.24-2.532,3.375-3.903
		c0.363-0.438,0.858-1.001,0.95-1.371c0.159-0.644,0.052-1.528,0.104-2.215c0.161-2.059,0.419-3.843,0.95-5.803
		c-1.765,0.101-3.967,0.675-5.908,0.949c-0.383-0.163,0.151-0.552,0.212-0.632c0.792-1.052,1.792-2.113,2.742-3.271
		c0.384-0.467,0.887-0.919,1.054-1.37c0.36-0.972,0.286-2.272,0.423-3.377c0.138-1.118,0.193-2.204,0.423-3.375
		c0.049-0.238-0.573-0.326-0.633-0.106c0.155-0.742,0.989-1.491,1.582-2.215c0.598-0.726,1.194-1.48,1.792-2.109
		c0.357-2.635,0.911-5.068,1.477-7.49c-6.466,0.869-14.438,2.336-21.413,3.48c-1.029,0.169-2.255,0.192-2.953,0.528
		c-1.167,0.559-1.982,2.597-2.742,3.059c0.169-1.166,0.596-2.075,0.737-3.27c-1.793,0.117-3.631,0.34-5.695,0.633
		c-0.608,0.085-1.345,0.116-1.795,0.316c-0.758,0.336-1.851,2.031-2.427,2.743c-0.818,1.013-1.594,1.938-2.319,2.742
		c-1.07,3.01-2.587,5.572-3.903,8.334c-1.088-4.083-2.118-8.222-3.269-12.237c-2.361,0.384-4.81,0.679-7.175,1.056
		c-1.181,0.896-2.079,2.635-3.061,3.374c0.217-1.118,0.332-2.34,0.527-3.48c-1.934,0.137-3.73,0.732-5.802,1.161
		c-0.647,0.133-1.449,0.076-2.004,0.316c-0.488,0.211-0.792,0.802-1.266,1.372c-1.174,1.407-2.524,2.92-3.587,4.324
		c-1.025,6.078-2.058,12.148-2.742,18.566c0.067-0.931-1.036-0.313-2.005-0.107c-4.033,0.866-8.798,1.716-12.449,2.533
		c0.318-12.542,1.299-24.143,3.376-34.812c-2.294,0.358-4.491,1.464-7.068,1.898c-0.855,0.145-1.795,0.18-2.53,0.526
		c-0.982,0.466-1.833,1.902-2.533,2.744c-0.848,1.017-1.553,1.959-2.321,2.849c-1.188,5.96-2.341,12.719-3.27,18.988
		C118.612,149.678,117.791,156.381,117.87,163.55z M145.403,59.324c-1.944,4.817-6.544,8.192-12.448,8.017
		c-4.302-0.127-7.413-2.733-9.283-5.802c-1.812-2.972-3.061-7.534-2.321-11.92c0.54-3.201,2.515-6.602,4.642-8.439
		c2.116-1.83,5.063-2.911,8.333-3.165c4.858-0.377,7.926,1.196,10.55,3.27c-0.127,0.752-0.862,0.896-1.161,1.477
		C147.164,46.883,147.292,54.641,145.403,59.324z M258.7,95.402c-1.755,2.164-4.66,3.678-8.229,3.586
		c-5.939-0.153-9.048-5.879-8.65-11.815c0.071-1.067,0.258-2.074,0.634-3.059c1.032-2.718,4.097-6.15,8.017-6.646
		c4.354-0.551,7.942,0.751,10.128,3.06c-0.094,0.576-0.75,0.586-0.951,1.055C262.31,85.783,261.062,92.486,258.7,95.402z
		 M152.894,155.109c0.077-2.417,0.6-4.834,0.948-7.278c1.03-7.207,2.007-14.817,3.271-21.942c1.527-0.196,3.25-0.758,4.536-0.846
		c-1.046,9.295-2.52,19.072-3.797,28.484C156.184,154.041,154.487,154.523,152.894,155.109z M167.872,124.412
		c1.455-0.197,2.967-0.34,4.326-0.634c0.543,1.317,0.895,2.727,1.268,4.115c1.111,4.18,2.255,8.459,2.845,13.186
		c0.49-0.107,0.65-0.702,0.843-1.055c3.217-5.819,6.437-12.063,9.391-18.249c1.44-0.036,2.606-0.348,4.009-0.424
		c0.327,0.238-0.05,0.645-0.106,0.845c-1.366,5.007-3.668,9.705-5.802,14.137c-2.304,4.789-4.992,9.378-7.278,14.03
		c-1.716,0.462-3.266,1.094-5.064,1.477C171.133,142.393,168.932,133.973,167.872,124.412z M195.829,125.256
		c0.157-1.39,0.213-2.879,0.419-4.22c6.901-1.153,13.837-2.269,20.678-3.48c0.155,1.352-0.517,2.786-0.631,4.22
		c-3.899,0.709-7.934,1.282-11.818,2.003c-0.418,2.254-0.74,4.604-1.054,6.964c3.02-0.285,6.512-1.013,9.705-1.478
		c-0.118,1.252-0.265,2.477-0.423,3.692c-3.188,0.678-6.668,1.067-9.915,1.687c-0.637,2.493-0.851,5.409-1.267,8.123
		c4.364-0.665,8.518-1.54,12.871-2.216c-0.108,1.58-0.449,2.928-0.529,4.536c-6.062,1.148-12.103,2.313-18.144,3.48
		c1.008-8.521,2.654-16.401,4.536-24.051C198.745,124.727,197.313,125.018,195.829,125.256z M130.423,177.685
		c0.66,2.667-3.849,4.469-6.541,4.01c-1.453-0.25-2.086-1.557-0.949-2.532c0.174-1.479,0.677-2.629,0.949-4.009
		c0.151-0.572-0.542-0.303-0.527-0.737c-0.081-2.219,3.284-1.813,6.119-1.691c1.079,0.049,2.009,0.129,2.426,0.425
		c0.513,1.795-1.595,2.558-2.637,3.48C129.862,177.08,130.276,177.091,130.423,177.685z M138.863,177.578
		c-0.399,1.705-0.504,3.829-1.583,4.536c-0.613,0.405-1.729,0.515-2.742,0.635c-0.919,0.105-2.069,0.305-2.849-0.211
		c-0.186-1.178,0.363-2.345,0.739-3.743c0.539-2.012,0.76-3.795,2.004-4.795c0.141,0,0.282,0,0.421,0
		c0.533,1-0.398,2.108-0.737,3.214c-0.365,1.188-0.634,2.237-0.95,3.45c1.09,0.34,2.692,0.257,3.375-0.172
		c0.536-0.334,0.615-1.131,0.844-2.141c0.273-1.204,0.591-2.186,0.527-3.711c0.457-0.35,0.571-1.055,1.477-0.957
		C139.86,174.71,139.192,176.17,138.863,177.578z M146.88,177.054c-1.316,1.454-2.647,2.694-3.692,4.428
		c-0.461,0.767-0.777,2.212-2.004,1.794c-0.519-1.452,0.923-1.518,1.056-2.744c0.182-1.675-3.127-5.11-0.422-6.327
		c1.097,1.011,0.737,3.479,1.793,4.535c1.145-0.873,2.099-2.041,2.953-3.27c0.284-0.409,0.325-1.094,1.055-0.949
		C148.635,175.466,147.48,176.389,146.88,177.054z M162.282,181.063c-0.573-0.343-0.919-0.914-1.478-1.268
		c-0.42,0.74-0.011,2.311-1.371,2.11c-0.24-0.553-0.034-1.298,0-1.898c-0.94,0.151-1.062,2.032-2.533,2.004
		c-0.423-1.812,1.182-2.463,1.899-3.483c-0.349-0.495-1.06-0.627-1.477-1.054c-0.089-0.934,0.281-1.405,0.738-1.794
		c0.735,0.146,1.09,0.668,1.688,0.95c0.324-0.977-0.054-2.657,1.371-2.532c0.436,0.548,0.102,1.57,0,2.216
		c0.791-0.177,1.553-1.801,2.637-1.69c0.241,2-1.322,2.195-2.109,3.167C162.571,178.398,164.34,180.401,162.282,181.063z
		 M180.321,181.694c-1.109,1.064-2.574,2.147-4.115,2.636c-0.811-2.282,2.807-2.244,3.377-3.903
		c-1.938,0.175-3.697,1.084-5.804,0.739c-0.146-1.675,1.167-3.169,2.319-4.325c1.111-1.109,2.484-2.02,3.589-2.739
		c0.1-0.064,0.176-0.102,0.315-0.102c0.036,0,0.072,0,0.106,0c0.65,0,0.259,1.195,0.105,1.475c-0.328,0.598-1.471,1.105-2.216,1.736
		c-0.824,0.701-1.581,1.247-2.004,1.979c2.232-0.163,4.079-1.275,6.33-1.068C182.582,179.588,181.179,180.87,180.321,181.694z
		 M187.812,177.79c-1.637,0.703-3.725,1.212-2.955,3.272c1.954-0.235,2.73-2.185,4.536-2.217c0.12,1.96-2.109,2.744-3.481,3.903
		c-0.451,0.38-1.015,1.131-1.477,1.056c-1.003-0.167-1.033-2.953-0.95-4.223c0.133-1.956,0.614-3.934,0.95-5.484
		c1.473-0.472,3.366-1.05,5.063-0.948c0.412,2.669-4.29,1.118-4.431,3.586c0.307,0.375,0.761-0.091,1.162-0.212
		c1.247-0.371,2.796-0.885,4.008-0.949C190.604,177.062,188.983,177.287,187.812,177.79z M195.404,180.427
		c-0.965,0.794-1.896,1.807-2.952,2.216c-0.354-0.22-0.73-1.175-0.845-2.004c-0.248-1.802-0.047-7.822,1.267-7.701
		c1.184,0.11,0.271,1.57,0.106,2.322c-0.343,1.557-0.296,3.373,0,4.535c1.797-0.42,2.543-1.886,4.219-2.427
		C197.922,178.911,196.24,179.743,195.404,180.427z M202.79,179.268c-0.942,0.855-1.776,1.975-2.848,2.427
		c-1.04-1.166-1.246-5.901-0.845-8.333c0.14-0.858,0.508-1.675,1.372-1.373c0.66,0.687-0.063,1.666-0.212,2.635
		c-0.209,1.364-0.164,2.838,0.106,4.116c1.85-0.399,2.482-2.017,4.22-2.531C205.361,177.804,203.587,178.542,202.79,179.268z
		 M220.83,173.888c-0.856-0.024-1.152-0.607-1.9-0.738c-0.101,0.54,0.347,2.419-0.736,2.32c-0.469-0.308-0.415-1.133-0.53-1.795
		c-0.853,0.202-0.587,2.438-2.004,2.429c-0.677-1.485,0.523-2.734,1.055-3.694c-0.389-0.381-1.119-0.426-1.687-0.633
		c-0.369-0.592-0.149-1.543,0.212-2.003c0.746,0.025,1.2,0.347,1.792,0.527c0.252-0.764-0.517-2.816,0.737-2.849
		c0.609,0.307,0.544,1.286,0.529,2.215c0.919-0.523,1.078-1.803,2.003-2.319c0.704,0.249,0.425,1.206,0.316,1.582
		c-0.229,0.791-1.216,1.396-1.265,2.108c0.621,0.47,1.585,0.596,2.003,1.267C221.43,173.079,221.271,173.626,220.83,173.888z
		 M238.13,171.46c-1.608,1.54-4.897,2.556-5.909,0c-0.789-1.994-0.304-4.8,0.739-6.328c0.821-1.205,2.669-2.709,3.798-2.954
		c2.318-0.506,3.601,1.764,3.587,4.222C240.336,168.248,239.468,170.178,238.13,171.46z M247.2,166.503
		c-1.163,0.334-2.07,0.631-2.635,1.266c0.517,0.894-0.023,2.175-0.846,2.108c-0.709-0.055-0.646-0.917-0.844-1.897
		c-0.283-1.412-1.101-3.553-1.37-4.324c-0.163-0.189-0.634-0.07-0.739-0.317c-0.597-2.153,1.145-2.657,2.848-3.693
		c1.517-0.919,2.783-2.233,4.326-1.477c0.461,3-1.238,4.736-2.216,6.646c1.121-0.093,4.227-1.127,4.22,0.422
		C249.939,166.203,248.212,166.212,247.2,166.503z M257.646,162.496c-0.614,0.829-1.545,1.604-2.532,2.318
		c-0.803,0.583-2.406,1.531-3.48,1.267c-1.105-0.273-1.433-1.997-1.371-3.693c0.104-2.953,1.58-6.374,2.952-7.807
		c0.027-0.113,0.211-0.07,0.212-0.209c0.727,0.3,1.131,1.784,0.738,2.53c0.031,0.449-0.562,0.109-0.738,0.106
		c-0.498,0.899-1.105,1.959-1.479,3.165c-0.351,1.146-0.758,2.586-0.314,3.902c0.996-0.054,2.036-0.691,3.06-1.476
		c1.23-0.945,2.928-1.982,1.793-3.905c-1.514,0.774-1.981,2.591-3.377,3.482c-1.216-1.105,0.101-2.693,0.739-3.587
		c0.754-1.058,1.685-2.158,2.531-2.743c1.054,0.298,0.89,1.213,1.162,2.532C257.911,160.188,258.783,160.96,257.646,162.496z
		 M266.401,157.959c-1.062-0.134-1.238-1.155-2.005-1.583c-1.664,0.724-2.689,2.092-3.797,3.375c0.036,0.74,0.288,1.682-0.211,2.108
		c-0.696,0.147-1.073-0.643-1.16-1.265c-0.154-1.089,0.334-3.062,0.42-4.956c0.059-1.274-0.308-4.898,0.844-4.644
		c0.683,0.15,1.44,0.867,2.006,1.371c0.592,0.53,1.192,1.064,1.794,1.584C265.479,154.976,267.365,156.296,266.401,157.959z
		 M272.836,154.479c-1.212,0.142-1.974-0.905-2.849-1.479c-0.904-0.593-1.862-1.081-2.953-1.478c0.323,0.606,0.53,1.258,0.948,2.005
		c0.58,1.032,1.99,1.723,1.055,3.27c-0.837,0.075-1.043-0.876-1.372-1.475c-0.661-1.216-1.242-2.284-2.002-3.588
		c-0.617-1.062-1.58-1.863-0.739-3.27c2.325,0.56,3.686,2.081,5.907,2.741c-0.127-0.852-0.604-1.774-1.159-2.741
		c-0.605-1.054-1.914-2.783-0.316-3.271c1.145,1.073,1.547,2.89,2.214,4.43c0.313,0.722,0.619,1.521,0.949,2.32
		C272.824,152.681,273.392,153.67,272.836,154.479z M275.579,152.155c-0.653,0.104-0.905-0.764-1.267-1.582
		c-0.294-0.668-0.836-1.655-1.371-2.637c-0.553-1.018-1.401-1.909-1.583-2.427c-0.306-0.887,0.028-2.286,0.949-1.898
		c0.603,1.868,1.671,3.913,2.849,5.591c0.373,0.53,1.005,1.178,1.055,1.688C276.274,151.55,275.982,152.092,275.579,152.155z
		 M281.382,147.409c-0.951,0.973-2.336,1.872-3.167,2.637c-2.333-0.921-0.585-5.791-0.422-8.122
		c-1.418,0.374-1.677,1.907-2.953,2.427c-1.285-1.32-0.046-2.47,1.267-3.692c0.949-0.887,1.72-1.746,2.849-1.794
		c0.472,0.466,0.447,1.184,0.422,1.794c-0.099,2.169-1.223,4.586-0.949,6.751c0.844-0.385,1.652-1.048,2.319-1.688
		c0.514-0.492,0.809-1.296,1.479-1.37C283.363,145.296,281.963,146.812,281.382,147.409z M286.865,141.924
		c-0.268,1.126-0.382,2.319-0.948,2.849c-2.268-0.761-3.363-3.203-4.535-5.486c-0.38-0.738-1.095-1.496-1.056-2.216
		c0.018-0.329,2.45-3.953,3.27-3.799c1.368,0.261-0.2,2.323-0.527,2.744c-0.663,0.854-1.57,1.768-0.738,2.849
		c0.621-0.624,1.146-1.36,1.688-2.11c0.509-0.703,0.87-1.689,1.794-2.004c0.905,0.956-0.069,2.089-0.633,3.06
		c-0.905,1.554-2.373,3.323-0.526,4.431c1.3-0.88,1.077-3.281,2.213-4.326C288.281,138.562,287.251,140.303,286.865,141.924z"/>
</g>
</svg>
